<mxfile host="app.diagrams.net" modified="2023-11-16T13:07:41.503Z" agent="Mozilla/5.0 (Windows NT 10.0; Win64; x64; rv:109.0) Gecko/20100101 Firefox/119.0" version="22.1.2" etag="3CKY_KkHwNVKb9Mjt8zX" type="github">
  <diagram name="PÃ¡gina-1" id="hkIuNqzJ2YWtZxPVF51g">
    <mxGraphModel>
      <root>
        <mxCell id="0" />
        <mxCell id="1" parent="0" />
      </root>
    </mxGraphModel>
  </diagram>
</mxfile>
